<?xml version="1.0" encoding="utf-8" standalone="no"?>
<!DOCTYPE svg PUBLIC "-//W3C//DTD SVG 1.1//EN"
  "http://www.w3.org/Graphics/SVG/1.1/DTD/svg11.dtd">
<svg xmlns:xlink="http://www.w3.org/1999/xlink" width="488.7pt" height="280.82175pt" viewBox="0 0 488.7 280.82175" xmlns="http://www.w3.org/2000/svg" version="1.1">
 <metadata>
  <rdf:RDF xmlns:dc="http://purl.org/dc/elements/1.1/" xmlns:cc="http://creativecommons.org/ns#" xmlns:rdf="http://www.w3.org/1999/02/22-rdf-syntax-ns#">
   <cc:Work>
    <dc:type rdf:resource="http://purl.org/dc/dcmitype/StillImage"/>
    <dc:date>2026-04-30T01:08:43.829581</dc:date>
    <dc:format>image/svg+xml</dc:format>
    <dc:creator>
     <cc:Agent>
      <dc:title>Matplotlib v3.9.2, https://matplotlib.org/</dc:title>
     </cc:Agent>
    </dc:creator>
   </cc:Work>
  </rdf:RDF>
 </metadata>
 <defs>
  <style type="text/css">*{stroke-linejoin: round; stroke-linecap: butt}</style>
 </defs>
 <g id="figure_1">
  <g id="patch_1">
   <path d="M 0 280.82175 
L 488.7 280.82175 
L 488.7 0 
L 0 0 
z
" style="fill: #ffffff"/>
  </g>
  <g id="axes_1">
   <g id="text_1">
    <g id="patch_2">
     <path d="M 13.78125 133.340625 
L 48.04875 133.340625 
Q 51.64875 133.340625 51.64875 129.740625 
L 51.64875 118.126875 
Q 51.64875 114.526875 48.04875 114.526875 
L 13.78125 114.526875 
Q 10.18125 114.526875 10.18125 118.126875 
L 10.18125 129.740625 
Q 10.18125 133.340625 13.78125 133.340625 
z
" style="fill: #ffffff; stroke: #333333; stroke-linejoin: miter"/>
    </g>
    <!-- Vitals -->
    <g style="fill: #262626" transform="translate(13.78125 127.245) scale(0.12 -0.12)">
     <defs>
      <path id="DejaVuSerif-56" d="M 1119 4331 
L 2497 750 
L 3872 4331 
L 3347 4331 
L 3347 4666 
L 4716 4666 
L 4716 4331 
L 4263 4331 
L 2597 0 
L 2059 0 
L 403 4331 
L -63 4331 
L -63 4666 
L 1638 4666 
L 1638 4331 
L 1119 4331 
z
" transform="scale(0.015625)"/>
      <path id="DejaVuSerif-69" d="M 622 4353 
Q 622 4497 726 4603 
Q 831 4709 978 4709 
Q 1122 4709 1226 4603 
Q 1331 4497 1331 4353 
Q 1331 4206 1228 4103 
Q 1125 4000 978 4000 
Q 831 4000 726 4103 
Q 622 4206 622 4353 
z
M 1356 331 
L 1900 331 
L 1900 0 
L 231 0 
L 231 331 
L 781 331 
L 781 2988 
L 231 2988 
L 231 3322 
L 1356 3322 
L 1356 331 
z
" transform="scale(0.015625)"/>
      <path id="DejaVuSerif-74" d="M 691 2988 
L 184 2988 
L 184 3322 
L 691 3322 
L 691 4353 
L 1269 4353 
L 1269 3322 
L 2350 3322 
L 2350 2988 
L 1269 2988 
L 1269 878 
Q 1269 456 1350 337 
Q 1431 219 1650 219 
Q 1875 219 1978 351 
Q 2081 484 2088 781 
L 2522 781 
Q 2497 328 2275 118 
Q 2053 -91 1600 -91 
Q 1103 -91 897 129 
Q 691 350 691 878 
L 691 2988 
z
" transform="scale(0.015625)"/>
      <path id="DejaVuSerif-61" d="M 2547 1044 
L 2547 1747 
L 1806 1747 
Q 1378 1747 1168 1562 
Q 959 1378 959 997 
Q 959 650 1171 447 
Q 1384 244 1747 244 
Q 2106 244 2326 466 
Q 2547 688 2547 1044 
z
M 3122 2075 
L 3122 331 
L 3634 331 
L 3634 0 
L 2547 0 
L 2547 359 
Q 2356 128 2106 18 
Q 1856 -91 1522 -91 
Q 969 -91 644 203 
Q 319 497 319 997 
Q 319 1513 691 1797 
Q 1063 2081 1741 2081 
L 2547 2081 
L 2547 2309 
Q 2547 2688 2317 2895 
Q 2088 3103 1672 3103 
Q 1328 3103 1125 2947 
Q 922 2791 872 2484 
L 575 2484 
L 575 3156 
Q 875 3284 1158 3348 
Q 1441 3413 1709 3413 
Q 2400 3413 2761 3070 
Q 3122 2728 3122 2075 
z
" transform="scale(0.015625)"/>
      <path id="DejaVuSerif-6c" d="M 1313 331 
L 1856 331 
L 1856 0 
L 184 0 
L 184 331 
L 738 331 
L 738 4531 
L 184 4531 
L 184 4863 
L 1313 4863 
L 1313 331 
z
" transform="scale(0.015625)"/>
      <path id="DejaVuSerif-73" d="M 359 184 
L 359 959 
L 691 959 
Q 703 588 923 403 
Q 1144 219 1575 219 
Q 1963 219 2166 364 
Q 2369 509 2369 788 
Q 2369 1006 2220 1140 
Q 2072 1275 1594 1428 
L 1178 1569 
Q 750 1706 558 1912 
Q 366 2119 366 2438 
Q 366 2894 700 3153 
Q 1034 3413 1625 3413 
Q 1888 3413 2178 3344 
Q 2469 3275 2778 3144 
L 2778 2419 
L 2447 2419 
Q 2434 2741 2221 2922 
Q 2009 3103 1644 3103 
Q 1281 3103 1095 2975 
Q 909 2847 909 2591 
Q 909 2381 1050 2254 
Q 1191 2128 1613 1997 
L 2069 1856 
Q 2541 1709 2748 1489 
Q 2956 1269 2956 922 
Q 2956 450 2595 179 
Q 2234 -91 1600 -91 
Q 1278 -91 972 -22 
Q 666 47 359 184 
z
" transform="scale(0.015625)"/>
     </defs>
     <use xlink:href="#DejaVuSerif-56"/>
     <use xlink:href="#DejaVuSerif-69" x="70.466797"/>
     <use xlink:href="#DejaVuSerif-74" x="102.449219"/>
     <use xlink:href="#DejaVuSerif-61" x="142.634766"/>
     <use xlink:href="#DejaVuSerif-6c" x="202.253906"/>
     <use xlink:href="#DejaVuSerif-73" x="234.236328"/>
    </g>
   </g>
   <g id="text_2">
    <g id="patch_3">
     <path d="M 68.001563 133.425937 
L 136.118438 133.425937 
Q 139.718438 133.425937 139.718438 129.825937 
L 139.718438 118.041562 
Q 139.718438 114.441562 136.118438 114.441562 
L 68.001563 114.441562 
Q 64.401563 114.441562 64.401563 118.041562 
L 64.401563 129.825937 
Q 64.401563 133.425937 68.001563 133.425937 
z
" style="fill: #ffffff; stroke: #333333; stroke-linejoin: miter"/>
    </g>
    <!-- Windowing -->
    <g style="fill: #262626" transform="translate(68.001563 127.159687) scale(0.12 -0.12)">
     <defs>
      <path id="DejaVuSerif-57" d="M 4878 0 
L 4366 0 
L 3297 3794 
L 2228 0 
L 1716 0 
L 494 4331 
L 31 4331 
L 31 4666 
L 1734 4666 
L 1734 4331 
L 1153 4331 
L 2125 884 
L 3188 4666 
L 3694 4666 
L 4775 844 
L 5753 4331 
L 5216 4331 
L 5216 4666 
L 6559 4666 
L 6559 4331 
L 6100 4331 
L 4878 0 
z
" transform="scale(0.015625)"/>
      <path id="DejaVuSerif-6e" d="M 263 0 
L 263 331 
L 781 331 
L 781 2988 
L 231 2988 
L 231 3322 
L 1356 3322 
L 1356 2731 
Q 1516 3069 1770 3241 
Q 2025 3413 2363 3413 
Q 2913 3413 3172 3097 
Q 3431 2781 3431 2113 
L 3431 331 
L 3944 331 
L 3944 0 
L 2356 0 
L 2356 331 
L 2853 331 
L 2853 1931 
Q 2853 2541 2703 2767 
Q 2553 2994 2175 2994 
Q 1775 2994 1565 2701 
Q 1356 2409 1356 1850 
L 1356 331 
L 1856 331 
L 1856 0 
L 263 0 
z
" transform="scale(0.015625)"/>
      <path id="DejaVuSerif-64" d="M 3359 331 
L 3909 331 
L 3909 0 
L 2784 0 
L 2784 519 
Q 2616 206 2355 57 
Q 2094 -91 1709 -91 
Q 1097 -91 708 395 
Q 319 881 319 1663 
Q 319 2444 706 2928 
Q 1094 3413 1709 3413 
Q 2094 3413 2355 3264 
Q 2616 3116 2784 2803 
L 2784 4531 
L 2241 4531 
L 2241 4863 
L 3359 4863 
L 3359 331 
z
M 2784 1497 
L 2784 1825 
Q 2784 2422 2554 2737 
Q 2325 3053 1888 3053 
Q 1444 3053 1217 2703 
Q 991 2353 991 1663 
Q 991 975 1217 622 
Q 1444 269 1888 269 
Q 2325 269 2554 583 
Q 2784 897 2784 1497 
z
" transform="scale(0.015625)"/>
      <path id="DejaVuSerif-6f" d="M 1925 219 
Q 2388 219 2623 584 
Q 2859 950 2859 1663 
Q 2859 2375 2623 2739 
Q 2388 3103 1925 3103 
Q 1463 3103 1227 2739 
Q 991 2375 991 1663 
Q 991 950 1228 584 
Q 1466 219 1925 219 
z
M 1925 -91 
Q 1200 -91 759 389 
Q 319 869 319 1663 
Q 319 2456 758 2934 
Q 1197 3413 1925 3413 
Q 2653 3413 3092 2934 
Q 3531 2456 3531 1663 
Q 3531 869 3092 389 
Q 2653 -91 1925 -91 
z
" transform="scale(0.015625)"/>
      <path id="DejaVuSerif-77" d="M 3072 3322 
L 3922 728 
L 4672 2988 
L 4191 2988 
L 4191 3322 
L 5394 3322 
L 5394 2988 
L 5025 2988 
L 4038 0 
L 3559 0 
L 2741 2484 
L 1919 0 
L 1459 0 
L 475 2988 
L 103 2988 
L 103 3322 
L 1606 3322 
L 1606 2988 
L 1069 2988 
L 1813 728 
L 2669 3322 
L 3072 3322 
z
" transform="scale(0.015625)"/>
      <path id="DejaVuSerif-67" d="M 3359 2988 
L 3359 72 
Q 3359 -644 2965 -1033 
Q 2572 -1422 1844 -1422 
Q 1516 -1422 1216 -1362 
Q 916 -1303 641 -1184 
L 641 -488 
L 941 -488 
Q 997 -813 1206 -963 
Q 1416 -1113 1806 -1113 
Q 2313 -1113 2548 -827 
Q 2784 -541 2784 72 
L 2784 519 
Q 2616 206 2355 57 
Q 2094 -91 1709 -91 
Q 1097 -91 708 395 
Q 319 881 319 1663 
Q 319 2444 706 2928 
Q 1094 3413 1709 3413 
Q 2094 3413 2355 3264 
Q 2616 3116 2784 2803 
L 2784 3322 
L 3909 3322 
L 3909 2988 
L 3359 2988 
z
M 2784 1825 
Q 2784 2422 2554 2737 
Q 2325 3053 1888 3053 
Q 1444 3053 1217 2703 
Q 991 2353 991 1663 
Q 991 975 1217 622 
Q 1444 269 1888 269 
Q 2325 269 2554 583 
Q 2784 897 2784 1497 
L 2784 1825 
z
" transform="scale(0.015625)"/>
     </defs>
     <use xlink:href="#DejaVuSerif-57"/>
     <use xlink:href="#DejaVuSerif-69" x="101.033203"/>
     <use xlink:href="#DejaVuSerif-6e" x="133.015625"/>
     <use xlink:href="#DejaVuSerif-64" x="197.419922"/>
     <use xlink:href="#DejaVuSerif-6f" x="261.433594"/>
     <use xlink:href="#DejaVuSerif-77" x="321.638672"/>
     <use xlink:href="#DejaVuSerif-69" x="407.234375"/>
     <use xlink:href="#DejaVuSerif-6e" x="439.216797"/>
     <use xlink:href="#DejaVuSerif-67" x="503.621094"/>
    </g>
   </g>
   <g id="text_3">
    <g id="patch_4">
     <path d="M 153.379875 133.340625 
L 202.516125 133.340625 
Q 206.116125 133.340625 206.116125 129.740625 
L 206.116125 118.126875 
Q 206.116125 114.526875 202.516125 114.526875 
L 153.379875 114.526875 
Q 149.779875 114.526875 149.779875 118.126875 
L 149.779875 129.740625 
Q 149.779875 133.340625 153.379875 133.340625 
z
" style="fill: #ffffff; stroke: #333333; stroke-linejoin: miter"/>
    </g>
    <!-- BiLSTM -->
    <g style="fill: #262626" transform="translate(153.379875 127.245) scale(0.12 -0.12)">
     <defs>
      <path id="DejaVuSerif-42" d="M 1581 331 
L 2516 331 
Q 3078 331 3337 575 
Q 3597 819 3597 1350 
Q 3597 1878 3339 2120 
Q 3081 2363 2516 2363 
L 1581 2363 
L 1581 331 
z
M 1581 2694 
L 2375 2694 
Q 2888 2694 3123 2891 
Q 3359 3088 3359 3513 
Q 3359 3941 3123 4136 
Q 2888 4331 2375 4331 
L 1581 4331 
L 1581 2694 
z
M 353 0 
L 353 331 
L 947 331 
L 947 4331 
L 353 4331 
L 353 4666 
L 2656 4666 
Q 3363 4666 3720 4377 
Q 4078 4088 4078 3513 
Q 4078 3097 3829 2850 
Q 3581 2603 3103 2547 
Q 3697 2472 4005 2167 
Q 4313 1863 4313 1350 
Q 4313 656 3875 328 
Q 3438 0 2509 0 
L 353 0 
z
" transform="scale(0.015625)"/>
      <path id="DejaVuSerif-4c" d="M 353 0 
L 353 331 
L 947 331 
L 947 4331 
L 353 4331 
L 353 4666 
L 2175 4666 
L 2175 4331 
L 1581 4331 
L 1581 384 
L 3713 384 
L 3713 1166 
L 4097 1166 
L 4097 0 
L 353 0 
z
" transform="scale(0.015625)"/>
      <path id="DejaVuSerif-53" d="M 594 225 
L 594 1288 
L 953 1284 
Q 969 753 1261 498 
Q 1553 244 2150 244 
Q 2706 244 2998 464 
Q 3291 684 3291 1106 
Q 3291 1444 3114 1625 
Q 2938 1806 2369 1978 
L 1753 2163 
Q 1084 2366 811 2669 
Q 538 2972 538 3500 
Q 538 4094 959 4422 
Q 1381 4750 2144 4750 
Q 2469 4750 2856 4679 
Q 3244 4609 3681 4475 
L 3681 3481 
L 3328 3481 
Q 3275 3975 2998 4195 
Q 2722 4416 2156 4416 
Q 1663 4416 1405 4214 
Q 1147 4013 1147 3628 
Q 1147 3294 1340 3103 
Q 1534 2913 2163 2725 
L 2741 2553 
Q 3375 2363 3645 2067 
Q 3916 1772 3916 1275 
Q 3916 597 3481 253 
Q 3047 -91 2188 -91 
Q 1803 -91 1404 -12 
Q 1006 66 594 225 
z
" transform="scale(0.015625)"/>
      <path id="DejaVuSerif-54" d="M 1222 0 
L 1222 331 
L 1819 331 
L 1819 4294 
L 447 4294 
L 447 3566 
L 63 3566 
L 63 4666 
L 4206 4666 
L 4206 3566 
L 3822 3566 
L 3822 4294 
L 2450 4294 
L 2450 331 
L 3047 331 
L 3047 0 
L 1222 0 
z
" transform="scale(0.015625)"/>
      <path id="DejaVuSerif-4d" d="M 353 0 
L 353 331 
L 947 331 
L 947 4331 
L 319 4331 
L 319 4666 
L 1678 4666 
L 3316 1344 
L 4953 4666 
L 6228 4666 
L 6228 4331 
L 5606 4331 
L 5606 331 
L 6203 331 
L 6203 0 
L 4378 0 
L 4378 331 
L 4972 331 
L 4972 3938 
L 3372 684 
L 2931 684 
L 1331 3938 
L 1331 331 
L 1925 331 
L 1925 0 
L 353 0 
z
" transform="scale(0.015625)"/>
     </defs>
     <use xlink:href="#DejaVuSerif-42"/>
     <use xlink:href="#DejaVuSerif-69" x="73.486328"/>
     <use xlink:href="#DejaVuSerif-4c" x="105.46875"/>
     <use xlink:href="#DejaVuSerif-53" x="171.875"/>
     <use xlink:href="#DejaVuSerif-54" x="240.380859"/>
     <use xlink:href="#DejaVuSerif-4d" x="307.080078"/>
    </g>
   </g>
   <g id="text_4">
    <g id="patch_5">
     <path d="M 219.067875 133.425937 
L 288.604125 133.425937 
Q 292.204125 133.425937 292.204125 129.825937 
L 292.204125 118.041562 
Q 292.204125 114.441562 288.604125 114.441562 
L 219.067875 114.441562 
Q 215.467875 114.441562 215.467875 118.041562 
L 215.467875 129.825937 
Q 215.467875 133.425937 219.067875 133.425937 
z
" style="fill: #ffffff; stroke: #333333; stroke-linejoin: miter"/>
    </g>
    <!-- Embedding -->
    <g style="fill: #262626" transform="translate(219.067875 127.159687) scale(0.12 -0.12)">
     <defs>
      <path id="DejaVuSerif-45" d="M 353 0 
L 353 331 
L 947 331 
L 947 4331 
L 353 4331 
L 353 4666 
L 4109 4666 
L 4109 3628 
L 3725 3628 
L 3725 4281 
L 1581 4281 
L 1581 2719 
L 3109 2719 
L 3109 3303 
L 3494 3303 
L 3494 1753 
L 3109 1753 
L 3109 2338 
L 1581 2338 
L 1581 384 
L 3775 384 
L 3775 1038 
L 4159 1038 
L 4159 0 
L 353 0 
z
" transform="scale(0.015625)"/>
      <path id="DejaVuSerif-6d" d="M 3316 2675 
Q 3481 3041 3739 3227 
Q 3997 3413 4341 3413 
Q 4863 3413 5119 3089 
Q 5375 2766 5375 2113 
L 5375 331 
L 5894 331 
L 5894 0 
L 4300 0 
L 4300 331 
L 4800 331 
L 4800 2047 
Q 4800 2556 4650 2772 
Q 4500 2988 4153 2988 
Q 3769 2988 3567 2697 
Q 3366 2406 3366 1850 
L 3366 331 
L 3866 331 
L 3866 0 
L 2291 0 
L 2291 331 
L 2791 331 
L 2791 2069 
Q 2791 2566 2641 2777 
Q 2491 2988 2144 2988 
Q 1759 2988 1557 2697 
Q 1356 2406 1356 1850 
L 1356 331 
L 1856 331 
L 1856 0 
L 263 0 
L 263 331 
L 781 331 
L 781 2994 
L 231 2994 
L 231 3322 
L 1356 3322 
L 1356 2731 
Q 1516 3063 1762 3238 
Q 2009 3413 2322 3413 
Q 2709 3413 2968 3220 
Q 3228 3028 3316 2675 
z
" transform="scale(0.015625)"/>
      <path id="DejaVuSerif-62" d="M 738 331 
L 738 4531 
L 184 4531 
L 184 4863 
L 1313 4863 
L 1313 2803 
Q 1481 3116 1742 3264 
Q 2003 3413 2388 3413 
Q 3000 3413 3387 2928 
Q 3775 2444 3775 1663 
Q 3775 881 3387 395 
Q 3000 -91 2388 -91 
Q 2003 -91 1742 57 
Q 1481 206 1313 519 
L 1313 0 
L 184 0 
L 184 331 
L 738 331 
z
M 1313 1497 
Q 1313 897 1542 583 
Q 1772 269 2209 269 
Q 2650 269 2876 622 
Q 3103 975 3103 1663 
Q 3103 2353 2876 2703 
Q 2650 3053 2209 3053 
Q 1772 3053 1542 2737 
Q 1313 2422 1313 1825 
L 1313 1497 
z
" transform="scale(0.015625)"/>
      <path id="DejaVuSerif-65" d="M 3469 1600 
L 991 1600 
L 991 1575 
Q 991 903 1244 561 
Q 1497 219 1991 219 
Q 2369 219 2611 417 
Q 2853 616 2950 1006 
L 3413 1006 
Q 3275 459 2904 184 
Q 2534 -91 1931 -91 
Q 1203 -91 761 389 
Q 319 869 319 1663 
Q 319 2450 753 2931 
Q 1188 3413 1894 3413 
Q 2647 3413 3050 2948 
Q 3453 2484 3469 1600 
z
M 2791 1931 
Q 2772 2513 2545 2808 
Q 2319 3103 1894 3103 
Q 1497 3103 1269 2806 
Q 1041 2509 991 1931 
L 2791 1931 
z
" transform="scale(0.015625)"/>
     </defs>
     <use xlink:href="#DejaVuSerif-45"/>
     <use xlink:href="#DejaVuSerif-6d" x="72.998047"/>
     <use xlink:href="#DejaVuSerif-62" x="167.822266"/>
     <use xlink:href="#DejaVuSerif-65" x="231.835938"/>
     <use xlink:href="#DejaVuSerif-64" x="291.015625"/>
     <use xlink:href="#DejaVuSerif-64" x="355.029297"/>
     <use xlink:href="#DejaVuSerif-69" x="419.042969"/>
     <use xlink:href="#DejaVuSerif-6e" x="451.025391"/>
     <use xlink:href="#DejaVuSerif-67" x="515.429688"/>
    </g>
   </g>
   <g id="text_5">
    <g id="patch_6">
     <path d="M 279.548063 133.340625 
L 379.899938 133.340625 
Q 383.499938 133.340625 383.499938 129.740625 
L 383.499938 118.126875 
Q 383.499938 114.526875 379.899938 114.526875 
L 279.548063 114.526875 
Q 275.948063 114.526875 275.948063 118.126875 
L 275.948063 129.740625 
Q 275.948063 133.340625 279.548063 133.340625 
z
" style="fill: #ffffff; stroke: #333333; stroke-linejoin: miter"/>
    </g>
    <!-- Quantum Kernel -->
    <g style="fill: #262626" transform="translate(279.548063 127.245) scale(0.12 -0.12)">
     <defs>
      <path id="DejaVuSerif-51" d="M 2700 -91 
Q 1628 -91 993 567 
Q 359 1225 359 2328 
Q 359 2894 529 3339 
Q 700 3784 1050 4134 
Q 1356 4441 1750 4595 
Q 2144 4750 2625 4750 
Q 3641 4750 4266 4084 
Q 4891 3419 4891 2328 
Q 4891 1403 4422 773 
Q 3953 144 3128 -38 
Q 3297 -247 3539 -347 
Q 3781 -447 4122 -447 
L 4219 -447 
L 4219 -1025 
Q 3691 -1000 3314 -767 
Q 2938 -534 2700 -91 
z
M 2625 244 
Q 3391 244 3781 770 
Q 4172 1297 4172 2328 
Q 4172 3363 3781 3889 
Q 3391 4416 2625 4416 
Q 1856 4416 1465 3889 
Q 1075 3363 1075 2328 
Q 1075 1297 1465 770 
Q 1856 244 2625 244 
z
" transform="scale(0.015625)"/>
      <path id="DejaVuSerif-75" d="M 2266 3322 
L 3341 3322 
L 3341 331 
L 3884 331 
L 3884 0 
L 2766 0 
L 2766 588 
Q 2606 256 2353 82 
Q 2100 -91 1766 -91 
Q 1213 -91 952 223 
Q 691 538 691 1209 
L 691 2988 
L 172 2988 
L 172 3322 
L 1269 3322 
L 1269 1388 
Q 1269 781 1417 556 
Q 1566 331 1947 331 
Q 2347 331 2556 625 
Q 2766 919 2766 1478 
L 2766 2988 
L 2266 2988 
L 2266 3322 
z
" transform="scale(0.015625)"/>
      <path id="DejaVuSerif-20" transform="scale(0.015625)"/>
      <path id="DejaVuSerif-4b" d="M 353 0 
L 353 331 
L 947 331 
L 947 4331 
L 353 4331 
L 353 4666 
L 2175 4666 
L 2175 4331 
L 1581 4331 
L 1581 2566 
L 3591 4331 
L 3084 4331 
L 3084 4666 
L 4634 4666 
L 4634 4331 
L 4109 4331 
L 2106 2572 
L 4347 331 
L 4878 331 
L 4878 0 
L 3794 0 
L 1581 2216 
L 1581 331 
L 2175 331 
L 2175 0 
L 353 0 
z
" transform="scale(0.015625)"/>
      <path id="DejaVuSerif-72" d="M 3059 3328 
L 3059 2497 
L 2728 2497 
Q 2713 2744 2591 2866 
Q 2469 2988 2234 2988 
Q 1809 2988 1582 2694 
Q 1356 2400 1356 1850 
L 1356 331 
L 2022 331 
L 2022 0 
L 263 0 
L 263 331 
L 781 331 
L 781 2994 
L 231 2994 
L 231 3322 
L 1356 3322 
L 1356 2731 
Q 1525 3078 1790 3245 
Q 2056 3413 2438 3413 
Q 2578 3413 2733 3391 
Q 2888 3369 3059 3328 
z
" transform="scale(0.015625)"/>
     </defs>
     <use xlink:href="#DejaVuSerif-51"/>
     <use xlink:href="#DejaVuSerif-75" x="81.982422"/>
     <use xlink:href="#DejaVuSerif-61" x="146.386719"/>
     <use xlink:href="#DejaVuSerif-6e" x="206.005859"/>
     <use xlink:href="#DejaVuSerif-74" x="270.410156"/>
     <use xlink:href="#DejaVuSerif-75" x="310.595703"/>
     <use xlink:href="#DejaVuSerif-6d" x="375"/>
     <use xlink:href="#DejaVuSerif-20" x="469.824219"/>
     <use xlink:href="#DejaVuSerif-4b" x="501.611328"/>
     <use xlink:href="#DejaVuSerif-65" x="573.693359"/>
     <use xlink:href="#DejaVuSerif-72" x="632.873047"/>
     <use xlink:href="#DejaVuSerif-6e" x="680.675781"/>
     <use xlink:href="#DejaVuSerif-65" x="745.080078"/>
     <use xlink:href="#DejaVuSerif-6c" x="804.259766"/>
    </g>
   </g>
   <g id="text_6">
    <g id="patch_7">
     <path d="M 221.881313 233.132625 
L 285.790688 233.132625 
Q 289.390688 233.132625 289.390688 229.532625 
L 289.390688 217.918875 
Q 289.390688 214.318875 285.790688 214.318875 
L 221.881313 214.318875 
Q 218.281313 214.318875 218.281313 217.918875 
L 218.281313 229.532625 
Q 218.281313 233.132625 221.881313 233.132625 
z
" style="fill: #ffffff; stroke: #333333; stroke-linejoin: miter"/>
    </g>
    <!-- Conformal -->
    <g style="fill: #262626" transform="translate(221.881313 227.037) scale(0.12 -0.12)">
     <defs>
      <path id="DejaVuSerif-43" d="M 4513 1234 
Q 4306 581 3820 245 
Q 3334 -91 2591 -91 
Q 2134 -91 1743 65 
Q 1353 222 1050 525 
Q 700 875 529 1320 
Q 359 1766 359 2328 
Q 359 3416 987 4083 
Q 1616 4750 2644 4750 
Q 3025 4750 3456 4650 
Q 3888 4550 4384 4347 
L 4384 3272 
L 4031 3272 
Q 3916 3859 3567 4137 
Q 3219 4416 2591 4416 
Q 1844 4416 1459 3886 
Q 1075 3356 1075 2328 
Q 1075 1303 1459 773 
Q 1844 244 2591 244 
Q 3113 244 3450 492 
Q 3788 741 3938 1234 
L 4513 1234 
z
" transform="scale(0.015625)"/>
      <path id="DejaVuSerif-66" d="M 2753 4078 
L 2450 4078 
Q 2447 4313 2317 4434 
Q 2188 4556 1941 4556 
Q 1619 4556 1487 4379 
Q 1356 4203 1356 3750 
L 1356 3322 
L 2284 3322 
L 2284 2988 
L 1356 2988 
L 1356 331 
L 2094 331 
L 2094 0 
L 231 0 
L 231 331 
L 781 331 
L 781 2988 
L 231 2988 
L 231 3322 
L 781 3322 
L 781 3738 
Q 781 4294 1070 4578 
Q 1359 4863 1919 4863 
Q 2128 4863 2337 4825 
Q 2547 4788 2753 4709 
L 2753 4078 
z
" transform="scale(0.015625)"/>
     </defs>
     <use xlink:href="#DejaVuSerif-43"/>
     <use xlink:href="#DejaVuSerif-6f" x="76.513672"/>
     <use xlink:href="#DejaVuSerif-6e" x="136.71875"/>
     <use xlink:href="#DejaVuSerif-66" x="201.123047"/>
     <use xlink:href="#DejaVuSerif-6f" x="238.134766"/>
     <use xlink:href="#DejaVuSerif-72" x="298.339844"/>
     <use xlink:href="#DejaVuSerif-6d" x="346.142578"/>
     <use xlink:href="#DejaVuSerif-61" x="440.966797"/>
     <use xlink:href="#DejaVuSerif-6c" x="500.585938"/>
    </g>
   </g>
   <g id="text_7">
    <g id="patch_8">
     <path d="M 71.8875 233.132625 
L 132.2325 233.132625 
Q 135.8325 233.132625 135.8325 229.532625 
L 135.8325 217.918875 
Q 135.8325 214.318875 132.2325 214.318875 
L 71.8875 214.318875 
Q 68.2875 214.318875 68.2875 217.918875 
L 68.2875 229.532625 
Q 68.2875 233.132625 71.8875 233.132625 
z
" style="fill: #ffffff; stroke: #333333; stroke-linejoin: miter"/>
    </g>
    <!-- Red Team -->
    <g style="fill: #262626" transform="translate(71.8875 227.037) scale(0.12 -0.12)">
     <defs>
      <path id="DejaVuSerif-52" d="M 3066 2316 
Q 3284 2256 3442 2114 
Q 3600 1972 3725 1716 
L 4403 331 
L 4972 331 
L 4972 0 
L 3872 0 
L 3144 1484 
Q 2934 1916 2759 2042 
Q 2584 2169 2278 2169 
L 1581 2169 
L 1581 331 
L 2241 331 
L 2241 0 
L 353 0 
L 353 331 
L 947 331 
L 947 4331 
L 353 4331 
L 353 4666 
L 2719 4666 
Q 3400 4666 3770 4341 
Q 4141 4016 4141 3419 
Q 4141 2938 3870 2661 
Q 3600 2384 3066 2316 
z
M 1581 2503 
L 2503 2503 
Q 2975 2503 3200 2726 
Q 3425 2950 3425 3419 
Q 3425 3888 3200 4109 
Q 2975 4331 2503 4331 
L 1581 4331 
L 1581 2503 
z
" transform="scale(0.015625)"/>
     </defs>
     <use xlink:href="#DejaVuSerif-52"/>
     <use xlink:href="#DejaVuSerif-65" x="75.292969"/>
     <use xlink:href="#DejaVuSerif-64" x="134.472656"/>
     <use xlink:href="#DejaVuSerif-20" x="198.486328"/>
     <use xlink:href="#DejaVuSerif-54" x="230.273438"/>
     <use xlink:href="#DejaVuSerif-65" x="289.222656"/>
     <use xlink:href="#DejaVuSerif-61" x="348.402344"/>
     <use xlink:href="#DejaVuSerif-6d" x="408.021484"/>
    </g>
   </g>
   <g id="text_8">
    <g id="patch_9">
     <path d="M 337.764938 183.236625 
L 416.543063 183.236625 
Q 420.143063 183.236625 420.143063 179.636625 
L 420.143063 168.022875 
Q 420.143063 164.422875 416.543063 164.422875 
L 337.764938 164.422875 
Q 334.164938 164.422875 334.164938 168.022875 
L 334.164938 179.636625 
Q 334.164938 183.236625 337.764938 183.236625 
z
" style="fill: #ffffff; stroke: #333333; stroke-linejoin: miter"/>
    </g>
    <!-- Orchestrator -->
    <g style="fill: #262626" transform="translate(337.764938 177.141) scale(0.12 -0.12)">
     <defs>
      <path id="DejaVuSerif-4f" d="M 2625 244 
Q 3391 244 3781 770 
Q 4172 1297 4172 2328 
Q 4172 3363 3781 3889 
Q 3391 4416 2625 4416 
Q 1856 4416 1465 3889 
Q 1075 3363 1075 2328 
Q 1075 1297 1465 770 
Q 1856 244 2625 244 
z
M 2625 -91 
Q 2150 -91 1751 65 
Q 1353 222 1050 525 
Q 700 875 529 1319 
Q 359 1763 359 2328 
Q 359 2894 529 3339 
Q 700 3784 1050 4134 
Q 1356 4441 1750 4595 
Q 2144 4750 2625 4750 
Q 3641 4750 4266 4084 
Q 4891 3419 4891 2328 
Q 4891 1769 4719 1320 
Q 4547 872 4197 525 
Q 3891 219 3497 64 
Q 3103 -91 2625 -91 
z
" transform="scale(0.015625)"/>
      <path id="DejaVuSerif-63" d="M 3291 997 
Q 3169 466 2822 187 
Q 2475 -91 1925 -91 
Q 1200 -91 759 389 
Q 319 869 319 1663 
Q 319 2459 759 2936 
Q 1200 3413 1925 3413 
Q 2241 3413 2553 3339 
Q 2866 3266 3181 3116 
L 3181 2266 
L 2847 2266 
Q 2781 2703 2561 2903 
Q 2341 3103 1931 3103 
Q 1466 3103 1228 2742 
Q 991 2381 991 1663 
Q 991 944 1227 581 
Q 1463 219 1931 219 
Q 2303 219 2525 412 
Q 2747 606 2828 997 
L 3291 997 
z
" transform="scale(0.015625)"/>
      <path id="DejaVuSerif-68" d="M 263 0 
L 263 331 
L 781 331 
L 781 4531 
L 231 4531 
L 231 4863 
L 1356 4863 
L 1356 2731 
Q 1516 3069 1770 3241 
Q 2025 3413 2363 3413 
Q 2913 3413 3172 3097 
Q 3431 2781 3431 2113 
L 3431 331 
L 3944 331 
L 3944 0 
L 2356 0 
L 2356 331 
L 2853 331 
L 2853 1931 
Q 2853 2541 2704 2764 
Q 2556 2988 2175 2988 
Q 1775 2988 1565 2697 
Q 1356 2406 1356 1850 
L 1356 331 
L 1856 331 
L 1856 0 
L 263 0 
z
" transform="scale(0.015625)"/>
     </defs>
     <use xlink:href="#DejaVuSerif-4f"/>
     <use xlink:href="#DejaVuSerif-72" x="81.982422"/>
     <use xlink:href="#DejaVuSerif-63" x="129.785156"/>
     <use xlink:href="#DejaVuSerif-68" x="185.791016"/>
     <use xlink:href="#DejaVuSerif-65" x="250.195312"/>
     <use xlink:href="#DejaVuSerif-73" x="309.375"/>
     <use xlink:href="#DejaVuSerif-74" x="360.693359"/>
     <use xlink:href="#DejaVuSerif-72" x="400.878906"/>
     <use xlink:href="#DejaVuSerif-61" x="448.681641"/>
     <use xlink:href="#DejaVuSerif-74" x="508.300781"/>
     <use xlink:href="#DejaVuSerif-6f" x="548.486328"/>
     <use xlink:href="#DejaVuSerif-72" x="608.691406"/>
    </g>
   </g>
   <g id="text_9">
    <g id="patch_10">
     <path d="M 428.4735 183.236625 
L 458.6385 183.236625 
Q 462.2385 183.236625 462.2385 179.636625 
L 462.2385 168.022875 
Q 462.2385 164.422875 458.6385 164.422875 
L 428.4735 164.422875 
Q 424.8735 164.422875 424.8735 168.022875 
L 424.8735 179.636625 
Q 424.8735 183.236625 428.4735 183.236625 
z
" style="fill: #ffffff; stroke: #333333; stroke-linejoin: miter"/>
    </g>
    <!-- Alert -->
    <g style="fill: #262626" transform="translate(428.4735 177.141) scale(0.12 -0.12)">
     <defs>
      <path id="DejaVuSerif-41" d="M 1281 1691 
L 2994 1691 
L 2138 3909 
L 1281 1691 
z
M -38 0 
L -38 331 
L 372 331 
L 2034 4666 
L 2559 4666 
L 4225 331 
L 4684 331 
L 4684 0 
L 2988 0 
L 2988 331 
L 3506 331 
L 3116 1356 
L 1153 1356 
L 763 331 
L 1275 331 
L 1275 0 
L -38 0 
z
" transform="scale(0.015625)"/>
     </defs>
     <use xlink:href="#DejaVuSerif-41"/>
     <use xlink:href="#DejaVuSerif-6c" x="72.216797"/>
     <use xlink:href="#DejaVuSerif-65" x="104.199219"/>
     <use xlink:href="#DejaVuSerif-72" x="163.378906"/>
     <use xlink:href="#DejaVuSerif-74" x="211.181641"/>
    </g>
   </g>
   <g id="patch_11">
    <path d="M 32.916822 123.93375 
Q 66.490342 123.93375 98.386811 123.93375 
" style="fill: none; stroke: #000000; stroke-width: 1.5; stroke-linecap: round"/>
    <path d="M 93.586811 121.53375 
L 98.386811 123.93375 
L 93.586811 126.33375 
" style="fill: none; stroke: #000000; stroke-width: 1.5; stroke-linecap: round"/>
   </g>
   <g id="patch_12">
    <path d="M 104.056321 123.93375 
Q 140.003198 123.93375 174.273023 123.93375 
" style="fill: none; stroke: #000000; stroke-width: 1.5; stroke-linecap: round"/>
    <path d="M 169.473023 121.53375 
L 174.273023 123.93375 
L 169.473023 126.33375 
" style="fill: none; stroke: #000000; stroke-width: 1.5; stroke-linecap: round"/>
   </g>
   <g id="patch_13">
    <path d="M 179.944321 123.93375 
Q 215.891198 123.93375 250.161023 123.93375 
" style="fill: none; stroke: #000000; stroke-width: 1.5; stroke-linecap: round"/>
    <path d="M 245.361023 121.53375 
L 250.161023 123.93375 
L 245.361023 126.33375 
" style="fill: none; stroke: #000000; stroke-width: 1.5; stroke-linecap: round"/>
   </g>
   <g id="patch_14">
    <path d="M 255.832321 123.93375 
Q 291.779198 123.93375 326.049023 123.93375 
" style="fill: none; stroke: #000000; stroke-width: 1.5; stroke-linecap: round"/>
    <path d="M 321.249023 121.53375 
L 326.049023 123.93375 
L 321.249023 126.33375 
" style="fill: none; stroke: #000000; stroke-width: 1.5; stroke-linecap: round"/>
   </g>
   <g id="patch_15">
    <path d="M 331.099076 125.38032 
Q 353.436445 148.879062 374.618377 171.162294 
" style="fill: none; stroke: #000000; stroke-width: 1.5; stroke-linecap: round"/>
    <path d="M 373.050822 166.029773 
L 374.618377 171.162294 
L 369.571827 169.336826 
" style="fill: none; stroke: #000000; stroke-width: 1.5; stroke-linecap: round"/>
   </g>
   <g id="patch_16">
    <path d="M 179.159225 125.5265 
Q 215.89255 173.830473 251.610729 220.79954 
" style="fill: none; stroke: #000000; stroke-width: 1.5; stroke-linecap: round"/>
    <path d="M 250.615575 215.526052 
L 251.610729 220.79954 
L 246.794847 218.43157 
" style="fill: none; stroke: #000000; stroke-width: 1.5; stroke-linecap: round"/>
   </g>
   <g id="patch_17">
    <path d="M 255.69134 222.975056 
Q 315.49413 198.778102 373.742302 175.210165 
" style="fill: none; stroke: #000000; stroke-width: 1.5; stroke-linecap: round"/>
    <path d="M 368.392549 174.785731 
L 373.742302 175.210165 
L 370.192903 179.235307 
" style="fill: none; stroke: #000000; stroke-width: 1.5; stroke-linecap: round"/>
   </g>
   <g id="patch_18">
    <path d="M 32.076578 125.563044 
Q 66.48844 173.831068 99.926759 220.733546 
" style="fill: none; stroke: #000000; stroke-width: 1.5; stroke-linecap: round"/>
    <path d="M 99.094528 215.431905 
L 99.926759 220.733546 
L 95.186108 218.218346 
" style="fill: none; stroke: #000000; stroke-width: 1.5; stroke-linecap: round"/>
   </g>
   <g id="patch_19">
    <path d="M 104.028675 223.368676 
Q 239.605709 198.777984 373.532616 174.486589 
" style="fill: none; stroke: #000000; stroke-width: 1.5; stroke-linecap: round"/>
    <path d="M 368.381356 172.981757 
L 373.532616 174.486589 
L 369.237993 177.704698 
" style="fill: none; stroke: #000000; stroke-width: 1.5; stroke-linecap: round"/>
   </g>
   <g id="patch_20">
    <path d="M 379.152058 173.82975 
Q 410.353614 173.82975 439.878119 173.82975 
" style="fill: none; stroke: #000000; stroke-width: 1.5; stroke-linecap: round"/>
    <path d="M 435.078119 171.42975 
L 439.878119 173.82975 
L 435.078119 176.22975 
" style="fill: none; stroke: #000000; stroke-width: 1.5; stroke-linecap: round"/>
   </g>
   <g id="text_10">
    <!-- QuantumSepsis Shield — System Architecture -->
    <g style="fill: #262626" transform="translate(74.917125 18.14175) scale(0.144 -0.144)">
     <defs>
      <path id="DejaVuSerif-70" d="M 1313 1825 
L 1313 1497 
Q 1313 897 1542 583 
Q 1772 269 2209 269 
Q 2650 269 2876 622 
Q 3103 975 3103 1663 
Q 3103 2353 2876 2703 
Q 2650 3053 2209 3053 
Q 1772 3053 1542 2737 
Q 1313 2422 1313 1825 
z
M 738 2988 
L 184 2988 
L 184 3322 
L 1313 3322 
L 1313 2803 
Q 1481 3116 1742 3264 
Q 2003 3413 2388 3413 
Q 3000 3413 3387 2928 
Q 3775 2444 3775 1663 
Q 3775 881 3387 395 
Q 3000 -91 2388 -91 
Q 2003 -91 1742 57 
Q 1481 206 1313 519 
L 1313 -997 
L 1856 -997 
L 1856 -1331 
L 184 -1331 
L 184 -997 
L 738 -997 
L 738 2988 
z
" transform="scale(0.015625)"/>
      <path id="DejaVuSerif-2014" d="M 281 1906 
L 6119 1906 
L 6119 1491 
L 281 1491 
L 281 1906 
z
" transform="scale(0.015625)"/>
      <path id="DejaVuSerif-79" d="M 1381 -609 
L 1600 -56 
L 359 2988 
L -19 2988 
L -19 3322 
L 1509 3322 
L 1509 2988 
L 978 2988 
L 1913 703 
L 2847 2988 
L 2350 2988 
L 2350 3322 
L 3597 3322 
L 3597 2988 
L 3225 2988 
L 1703 -750 
Q 1547 -1138 1356 -1280 
Q 1166 -1422 819 -1422 
Q 672 -1422 517 -1397 
Q 363 -1372 206 -1325 
L 206 -691 
L 500 -691 
Q 519 -903 608 -995 
Q 697 -1088 884 -1088 
Q 1056 -1088 1161 -992 
Q 1266 -897 1381 -609 
z
" transform="scale(0.015625)"/>
     </defs>
     <use xlink:href="#DejaVuSerif-51"/>
     <use xlink:href="#DejaVuSerif-75" x="81.982422"/>
     <use xlink:href="#DejaVuSerif-61" x="146.386719"/>
     <use xlink:href="#DejaVuSerif-6e" x="206.005859"/>
     <use xlink:href="#DejaVuSerif-74" x="270.410156"/>
     <use xlink:href="#DejaVuSerif-75" x="310.595703"/>
     <use xlink:href="#DejaVuSerif-6d" x="375"/>
     <use xlink:href="#DejaVuSerif-53" x="469.824219"/>
     <use xlink:href="#DejaVuSerif-65" x="538.330078"/>
     <use xlink:href="#DejaVuSerif-70" x="597.509766"/>
     <use xlink:href="#DejaVuSerif-73" x="661.523438"/>
     <use xlink:href="#DejaVuSerif-69" x="712.841797"/>
     <use xlink:href="#DejaVuSerif-73" x="744.824219"/>
     <use xlink:href="#DejaVuSerif-20" x="796.142578"/>
     <use xlink:href="#DejaVuSerif-53" x="827.929688"/>
     <use xlink:href="#DejaVuSerif-68" x="896.435547"/>
     <use xlink:href="#DejaVuSerif-69" x="960.839844"/>
     <use xlink:href="#DejaVuSerif-65" x="992.822266"/>
     <use xlink:href="#DejaVuSerif-6c" x="1052.001953"/>
     <use xlink:href="#DejaVuSerif-64" x="1083.984375"/>
     <use xlink:href="#DejaVuSerif-20" x="1147.998047"/>
     <use xlink:href="#DejaVuSerif-2014" x="1179.785156"/>
     <use xlink:href="#DejaVuSerif-20" x="1279.785156"/>
     <use xlink:href="#DejaVuSerif-53" x="1311.572266"/>
     <use xlink:href="#DejaVuSerif-79" x="1380.078125"/>
     <use xlink:href="#DejaVuSerif-73" x="1436.572266"/>
     <use xlink:href="#DejaVuSerif-74" x="1487.890625"/>
     <use xlink:href="#DejaVuSerif-65" x="1528.076172"/>
     <use xlink:href="#DejaVuSerif-6d" x="1587.255859"/>
     <use xlink:href="#DejaVuSerif-20" x="1682.080078"/>
     <use xlink:href="#DejaVuSerif-41" x="1713.867188"/>
     <use xlink:href="#DejaVuSerif-72" x="1786.083984"/>
     <use xlink:href="#DejaVuSerif-63" x="1833.886719"/>
     <use xlink:href="#DejaVuSerif-68" x="1889.892578"/>
     <use xlink:href="#DejaVuSerif-69" x="1954.296875"/>
     <use xlink:href="#DejaVuSerif-74" x="1986.279297"/>
     <use xlink:href="#DejaVuSerif-65" x="2026.464844"/>
     <use xlink:href="#DejaVuSerif-63" x="2085.644531"/>
     <use xlink:href="#DejaVuSerif-74" x="2141.650391"/>
     <use xlink:href="#DejaVuSerif-75" x="2181.835938"/>
     <use xlink:href="#DejaVuSerif-72" x="2246.240234"/>
     <use xlink:href="#DejaVuSerif-65" x="2294.042969"/>
    </g>
   </g>
  </g>
 </g>
</svg>
